<svg xmlns="http://www.w3.org/2000/svg" xmlns:xlink="http://www.w3.org/1999/xlink" version="1.1" x="0px" y="0px" width="53.6363636364px" height="100px" viewBox="5.9259 -22.0586 118.518 297.7911" enable-background="new 0 0 118.518 220.586" xml:space="preserve">
<g id="Layer_1">
</g>
<g id="Layer_2">
</g>
<g id="Layer_3">
	<g>
		<path d="M51.343,57.872c3.009,0,5.457-2.448,5.457-5.457c0-3.009-2.448-5.458-5.457-5.458c-3.008,0-5.454,2.448-5.454,5.458    C45.889,55.424,48.335,57.872,51.343,57.872z"/>
		<path d="M68.578,57.872c3.009,0,5.456-2.448,5.456-5.457c0-3.009-2.447-5.458-5.456-5.458s-5.456,2.448-5.456,5.458    C63.122,55.424,65.569,57.872,68.578,57.872z"/>
		<path d="M117.875,142.493c-8.984-25.599-21.374-46.847-36.822-63.218c1.17-1.778,1.818-3.751,1.818-5.843    c0-0.671-0.071-1.328-0.2-1.973c7.475-0.434,13.478-6.725,13.478-14.274c0-6.313-4.202-11.735-9.945-13.604    c0.737-0.385,1.247-1.149,1.247-2.039c0-7.309-3.633-8.895-5.377-9.235c-1.361-3.047-3.536-5.498-6.432-7.309l3.211-0.025    c2.149-0.021,3.815-2.08,3.794-4.689c-0.021-2.593-1.71-4.625-3.87-4.625l-6.007,0.047l3.285-3.338    c1.604-1.632,1.403-4.345-0.455-6.175c-0.951-0.937-2.204-1.474-3.436-1.474c-1.063,0-2.039,0.396-2.748,1.117l-4.562,4.635    l0.052-6.35c0.009-1-0.392-1.962-1.128-2.71C62.905,0.523,61.63,0.009,60.235,0c-2.583,0-4.622,1.775-4.643,4.043L55.54,10.64    l-4.727-4.804c-0.709-0.72-1.685-1.117-2.748-1.117c-1.232,0-2.484,0.537-3.435,1.474c-1.858,1.829-2.061,4.541-0.457,6.176    l3.257,3.309l-4.691,0.037c-2.148,0.019-3.814,2.079-3.793,4.686c0.019,2.595,1.705,4.627,3.842,4.627l2.754-0.021    c-2.534,1.463-4.742,3.406-6.235,5.946c-0.245,0.417-0.473,0.838-0.7,1.26h-0.21c-0.028,0-0.054-0.001-0.073-0.001    c-0.638,0-6.231,0.262-6.231,9.33c0,1.15,0.844,2.097,1.946,2.272c-5.392,2.065-9.264,7.31-9.264,13.371    c0,7.719,6.271,14.139,13.979,14.311L38.95,71.5h0.01c-0.124,0.631-0.193,1.275-0.193,1.932c0,1.303,0.253,2.56,0.725,3.753    c-0.22,0.201-0.443,0.415-0.678,0.656C22.731,94.396,9.888,116.148,0.643,142.492c-1.812,5.16,0.321,10.4,4.963,12.189    l2.879,1.111c1.111,0.429,2.296,0.646,3.521,0.646c4.125,0,7.701-2.486,8.697-6.044c3.428-12.249,9.68-24.807,15.424-33.832    c-0.356,2.569-0.781,5.3-1.166,7.773c-0.61,3.919-1.137,7.304-1.325,9.403c-1.975,16.106-2.544,32.251-1.705,48.804l-0.058,0.046    c0.004,0.005,0.027,0.033,0.064,0.079c0.501,9.792,1.493,19.727,2.981,29.883c0.737,4.582,4.697,8.036,9.213,8.036    c0.529,0,1.063-0.047,1.589-0.142l3.044-0.548c4.958-0.891,8.337-5.67,7.536-10.62c-2.875-19.606-3.627-38.641-2.294-58.104    c1.125,0.069,2.598,0.112,4.766,0.128c0.051,0.003,0.103,0.002,0.155,0.004l0.315-0.002l0.349,0.002    c0.053-0.002,0.104-0.001,0.155-0.004c2.168-0.016,3.641-0.059,4.766-0.128c1.333,19.465,0.581,38.498-2.29,58.072    c-0.804,4.983,2.575,9.762,7.532,10.652l3.045,0.548c0.524,0.094,1.059,0.142,1.588,0.142c4.589,0,8.464-3.379,9.22-8.067    c1.216-8.297,2.096-16.449,2.651-24.496c1.07,2.26,2.122,4.539,3.15,6.845c1.607,3.728,5.14,6.233,8.79,6.233    c0.853,0,1.688-0.137,2.481-0.408l2.458-0.834c1.937-0.661,3.48-2.1,4.346-4.054c1.054-2.377,0.999-5.264-0.161-7.948    c-6.427-14.418-13.388-27.753-21.11-40.512c-0.332-4.521-0.768-9.03-1.319-13.532c-0.197-2.173-0.725-5.559-1.334-9.479    c-0.386-2.472-0.81-5.202-1.167-7.77c5.744,9.025,11.997,21.583,15.424,33.83c0.996,3.559,4.572,6.045,8.696,6.045    c1.225,0,2.409-0.217,3.519-0.646l2.882-1.111C117.554,152.892,119.687,147.652,117.875,142.493z M84.428,66.304    c1.691-4.119,2.641-8.735,2.641-13.607c0-1.273-0.077-2.534-0.204-3.783c2.789,1.714,4.667,4.795,4.667,8.271    c0,4.413-3.023,8.2-7.104,9.344V66.304z M99.158,182.076c1.212,2.566,2.411,5.154,3.586,7.79c0.588,1.361,0.651,2.824,0.168,3.913    c-0.208,0.47-0.617,1.084-1.387,1.347l-2.457,0.834c-0.274,0.094-0.567,0.141-0.87,0.141c-1.657,0-3.383-1.321-4.211-3.241    c-0.922-2.067-1.867-4.124-2.83-6.172c2.225-0.173,4.16-0.897,5.782-2.173C97.86,183.79,98.581,182.948,99.158,182.076z     M96.252,176.058c-0.207,1.165-0.791,3.258-2.403,4.526c-1.231,0.969-2.95,1.319-5.119,1.054c-0.631-1.286-1.29-2.556-1.939-3.832    c0.228-6.574,0.231-13.088,0.011-19.563C90.083,164.034,93.234,169.95,96.252,176.058z M78.378,19.859    c0.036,0.108,0.07,0.263,0.071,0.459c0.002,0.196-0.029,0.351-0.064,0.752l-8.524,0.067c-0.115-0.605-0.248-0.91-0.396-1.208    L78.378,19.859z M71.851,8.621c0.502,0.341,0.649,0.411,0.803,0.563c0.157,0.154,0.229,0.301,0.258,0.395l-6.408,6.511    c-0.11,0.054-0.218,0.112-0.323,0.178c-0.232-0.152-0.475-0.293-1.127-0.739L71.851,8.621z M59.413,4.294    c0.461-0.044,0.614-0.097,0.838-0.097c0.218,0.002,0.37,0.057,0.675,0.104l-0.083,10.315c-0.228,0-0.236-0.001-0.245-0.001    c-0.302,0-0.599,0.018-1.269,0.042L59.413,4.294z M60.598,18.566c2.383,0,4.397,2.104,5.005,4.746H55.591    C56.198,20.67,58.213,18.566,60.598,18.566z M47.173,9.726c0.175-0.24,0.246-0.388,0.403-0.543c0.153-0.151,0.3-0.221,0.709-0.562    l6.826,6.937c-0.694,0.161-1.1,0.072-1.529,0.072l-0.452,0.148L47.173,9.726z M43.215,21.12c-0.037-0.401-0.069-0.554-0.071-0.751    c-0.002-0.196,0.029-0.351,0.064-0.46l8.322-0.065l0.16,0.163c-0.121,0.247-0.229,0.5-0.327,1.05L43.215,21.12z M51.878,27.242    h17.753c2.806,0.945,5.321,2.516,7.062,4.972H44.025C45.84,29.892,48.709,28.265,51.878,27.242z M29.392,57.185    c0-3.35,1.742-6.335,4.365-8.083c-0.084,1.179-0.141,2.372-0.141,3.594c0,4.941,0.979,9.616,2.717,13.779    C32.336,65.276,29.392,61.538,29.392,57.185z M38.318,36.83c0.018,0,0.035,0,0.053,0H81.17c0.011,0,0.021,0,0.031,0    c0.479,0.054,1.122,0.754,1.438,2.403H36.902C37.22,37.571,37.861,36.873,38.318,36.83z M38.233,52.697    c0-3.151,0.319-6.068,0.926-8.846h42.049c0.816,2.818,1.244,5.796,1.244,8.846c0,4.586-0.958,8.906-2.642,12.684v0.503    l-0.105-0.264c-0.061,0.024-0.122,0.044-0.182,0.068c-3.864-4.058-10.72-6.711-18.705-6.711c-8.724,0-16.107,3.162-19.704,7.869    v-0.953C39.284,61.995,38.233,57.493,38.233,52.697z M56.951,66.295c0.737,0,1.334-0.597,1.334-1.333    c0-0.514-0.3-0.947-0.728-1.17c1.062-0.12,2.146-0.198,3.261-0.198c0.993,0,1.962,0.066,2.915,0.161    c-0.46,0.211-0.782,0.669-0.782,1.207c0,0.736,0.597,1.333,1.333,1.333c0.737,0,1.334-0.597,1.334-1.333    c0-0.437-0.224-0.806-0.549-1.049c3.705,0.549,6.979,1.783,9.335,3.444c-8.165,2.154-17.337,2.218-27.397,0.169    c2.258-1.662,5.421-2.913,9.021-3.52c-0.251,0.242-0.409,0.579-0.409,0.956C55.618,65.698,56.215,66.295,56.951,66.295z     M61.08,73.643c4.885,0,9.531-0.567,13.932-1.676c-2.689,2.289-7.474,5.184-14.502,5.184c-6.696,0-11.142-2.702-13.705-4.967    C51.756,73.15,56.522,73.643,61.08,73.643z M60.51,81.768c8.178,0,13.883-3.299,17.244-6.085    c-1.861,4.289-8.853,7.586-16.936,7.586c-8.001,0-14.93-3.232-16.874-7.458C47.184,78.612,52.588,81.768,60.51,81.768z     M16.255,149.15c-0.513,1.835-2.563,2.671-4.25,2.671c-0.654,0-1.28-0.113-1.857-0.336l-2.881-1.112    c-2.259-0.871-3.233-3.601-2.268-6.352c2.782-7.927,5.896-15.42,9.327-22.47c0.692,1.067,1.597,2.135,2.796,3.061    c2.108,1.626,4.685,2.508,7.688,2.657C21.422,134.114,18.358,141.638,16.255,149.15z M47.947,215.352l-3.044,0.548    c-0.255,0.045-0.516,0.069-0.772,0.069c-2.272,0-4.273-1.785-4.649-4.121c-1.263-8.613-2.16-17.065-2.7-25.41    c1.684,0.865,3.74,1.537,6.105,1.537c1.938,0,4.084-0.466,6.382-1.623c0.482,7.823,1.303,15.676,2.468,23.626    C52.149,212.536,50.485,214.896,47.947,215.352z M79.043,211.816c-0.382,2.368-2.384,4.153-4.656,4.153    c-0.257,0-0.518-0.023-0.772-0.069l-3.044-0.548c-2.538-0.457-4.203-2.817-3.786-5.407c1.157-7.884,1.974-15.678,2.457-23.445    c2.188,1.05,4.231,1.475,6.088,1.475c2.511,0,4.682-0.752,6.418-1.694C81.209,194.667,80.312,203.162,79.043,211.816z     M91.314,122.632c-3.43-6.35-7.029-11.891-10.209-15.955c-0.604-0.771-1.626-1.077-2.552-0.766s-1.558,1.171-1.574,2.148    c-0.063,3.621,1.041,10.72,2.017,16.983c0.573,3.682,1.114,7.159,1.306,9.257c1.867,15.238,2.448,30.519,1.758,46.147    c-0.301,0.295-0.692,0.645-1.168,0.997c-1.983,1.469-5.437,2.972-9.887,0.769c-0.487-0.241-0.985-0.527-1.496-0.862    c0.472-10.932,0.286-21.837-0.565-32.893c-0.049-0.639-0.362-1.229-0.863-1.628c-0.41-0.328-0.919-0.503-1.438-0.503    c-0.113,0-0.227,0.008-0.34,0.025c-1.301,0.194-2.755,0.304-6.712,0.332c-0.03,0-0.061,0.001-0.091,0.003l-0.257-0.002    l-0.224,0.002c-0.03-0.001-0.061-0.002-0.091-0.003c-3.957-0.027-5.411-0.138-6.712-0.332c-0.634-0.094-1.278,0.079-1.778,0.479    c-0.501,0.399-0.814,0.989-0.863,1.628c-0.847,10.987-1.035,21.827-0.572,32.698c-0.613,0.422-1.21,0.769-1.79,1.057    c-4.453,2.205-7.905,0.701-9.889-0.769c-0.323-0.24-0.607-0.477-0.851-0.698c-0.712-15.746-0.132-31.14,1.753-46.519    c0.184-2.025,0.725-5.501,1.297-9.182c0.975-6.264,2.079-13.365,2.016-16.986c-0.017-0.977-0.648-1.838-1.574-2.148    c-0.927-0.311-1.949-0.004-2.552,0.766c-3.176,4.059-6.771,9.59-10.195,15.93c-0.594,0.055-1.16,0.072-1.708,0.062    c-2.238-0.036-4.096-0.592-5.527-1.683c-1.36-1.035-2.156-2.407-2.616-3.539c-0.171-0.419-0.295-0.803-0.384-1.127    c7.134-13.553,15.514-25.333,25.07-35.186c0.004,0,0.008,0,0.014,0.001c3.855,4.083,10.739,6.751,18.753,6.751    c6.959,0,13.069-2.011,17.082-5.213c8.863,9.439,16.697,20.551,23.422,33.249c-0.086,0.377-0.235,0.915-0.483,1.523    c-0.454,1.12-1.24,2.477-2.583,3.513c-1.437,1.109-3.307,1.675-5.565,1.712C92.246,122.677,91.79,122.667,91.314,122.632z     M111.251,150.374l-2.881,1.111c-0.578,0.223-1.204,0.336-1.857,0.336c-0.001,0-0.001,0-0.001,0c-1.687,0-3.736-0.836-4.249-2.671    c-2.104-7.516-5.171-15.043-8.56-21.891c2.87-0.192,5.34-1.076,7.374-2.646c1.306-1.007,2.267-2.185,2.979-3.345    c3.486,7.131,6.644,14.721,9.463,22.754C114.484,146.772,113.51,149.503,111.251,150.374z"/>
	</g>
</g>
<text x="0.0" y="259.18855" font-size="11.0293" font-weight="bold" font-family="Helvetica Neue, Helvetica, Arial-Unicode, Arial, Sans-serif" fill="#000000">Created by Will Deskins</text><text x="0.0" y="270.21785" font-size="11.0293" font-weight="bold" font-family="Helvetica Neue, Helvetica, Arial-Unicode, Arial, Sans-serif" fill="#000000">from the Noun Project</text></svg>