<svg width="1000" height="100" viewBox="0 0 1000 100" fill="currentColor" xmlns="http://www.w3.org/2000/svg">
<path d="M950.525 17.0049C961.465 17.2023 967.015 23.5661 972.78 30.1758C979.116 37.4395 985.71 45 1000 45V100H0V45C14.29 45 20.8844 37.4395 27.2197 30.1758C33.0762 23.4611 38.7115 17 50 17L50.5254 17.0049C61.4648 17.2023 67.0153 23.5661 72.7803 30.1758C79.1156 37.4395 85.71 45 100 45C114.29 45 120.884 37.4395 127.22 30.1758C133.076 23.4611 138.712 17 150 17L150.525 17.0049C161.465 17.2023 167.015 23.5661 172.78 30.1758C179.116 37.4395 185.71 45 200 45C214.29 45 220.884 37.4395 227.22 30.1758C233.076 23.4611 238.712 17 250 17L250.525 17.0049C261.465 17.2023 267.015 23.5661 272.78 30.1758C279.116 37.4395 285.71 45 300 45C314.29 45 320.884 37.4395 327.22 30.1758C333.076 23.4611 338.712 17 350 17L350.525 17.0049C361.465 17.2023 367.015 23.5661 372.78 30.1758C379.116 37.4395 385.71 45 400 45C414.29 45 420.884 37.4395 427.22 30.1758C433.076 23.4611 438.712 17 450 17L450.525 17.0049C461.465 17.2023 467.015 23.5661 472.78 30.1758C479.116 37.4395 485.71 45 500 45C514.29 45 520.884 37.4395 527.22 30.1758C533.076 23.4611 538.712 17 550 17L550.525 17.0049C561.465 17.2023 567.015 23.5661 572.78 30.1758C579.116 37.4395 585.71 45 600 45C614.29 45 620.884 37.4395 627.22 30.1758C633.076 23.4611 638.712 17 650 17L650.525 17.0049C661.465 17.2023 667.015 23.5661 672.78 30.1758C679.116 37.4395 685.71 45 700 45C714.29 45 720.884 37.4395 727.22 30.1758C733.076 23.4611 738.712 17 750 17L750.525 17.0049C761.465 17.2023 767.015 23.5661 772.78 30.1758C779.116 37.4395 785.71 45 800 45C814.29 45 820.884 37.4395 827.22 30.1758C833.076 23.4611 838.712 17 850 17L850.525 17.0049C861.465 17.2023 867.015 23.5661 872.78 30.1758C879.116 37.4395 885.71 45 900 45C914.29 45 920.884 37.4395 927.22 30.1758C933.076 23.4611 938.712 17 950 17L950.525 17.0049Z" />
</svg>
