<svg xmlns="http://www.w3.org/2000/svg" xmlns:xlink="http://www.w3.org/1999/xlink" version="1.1" x="0px" y="0px" viewBox="0 0 73.6 15.2" enable-background="new 0 0 73.6 15.2" xml:space="preserve"><g><path fill="#231F20" d="M6.1 5.3h1l1.2 3.1l1.2-3.1h1v4.9H9.6v-3L8.6 9.8H8L7 7.2v3H6.1V5.3z"/><path fill="#231F20" d="M15.2 5.3v0.8h-2.1v1h1.7V8h-1.7v1.4h2.2v0.8h-3.1V5.3H15.2z"/><path fill="#231F20" d="M20 9.7c-0.2 0.3-0.6 0.6-1.2 0.6c-1.2 0-2.3-0.8-2.3-2.5c0-1.7 1.1-2.5 2.3-2.5c1.1 0 1.8 0.7 2 1.5 L20.1 7c-0.2-0.6-0.6-0.9-1.2-0.9c-0.8 0-1.4 0.5-1.4 1.7c0 1.2 0.6 1.7 1.4 1.7c0.7 0 1-0.5 1.1-0.9H19V7.8h1.8v2.5h-0.8L20 9.7z"/><path fill="#231F20" d="M26.1 8.4c0 1.3-0.8 1.9-1.8 1.9c-1.1 0-1.8-0.6-1.8-1.9v-3h0.9v3.1c0 0.7 0.3 1.1 0.9 1.1s0.9-0.4 0.9-1.1 V5.3h0.9V8.4z"/><path fill="#231F20" d="M27.8 5.3h1l1.2 3.1l1.2-3.1h1v4.9h-0.9v-3l-0.9 2.6h-0.7l-0.9-2.6v3h-0.9V5.3z"/><path fill="#231F20" d="M34.7 10.2h-0.9V5.3h0.9V10.2z"/><path fill="#231F20" d="M38.6 5.3h3.6v0.8h-1.4v4.1h-0.9V6.2h-1.4V5.3z"/><path fill="#231F20" d="M45.6 9.1H44l-0.4 1.2h-1l1.7-4.9h0.9l1.7 4.9h-1L45.6 9.1z M44.3 8.2h1l-0.5-1.7L44.3 8.2z"/><path fill="#231F20" d="M51.9 5.3v4.9h-1L49.1 7v3.2h-0.9V5.3h1L51 8.6V5.3H51.9z"/><path fill="#231F20" d="M56.1 9.1h-1.6l-0.4 1.2h-1l1.7-4.9h0.9l1.7 4.9h-1L56.1 9.1z M54.8 8.2h1l-0.5-1.7L54.8 8.2z"/><path fill="#231F20" d="M59.7 5.3v1.8l1.7-1.8h1.1l-2 2.2l2.1 2.7h-1.2l-1.8-2.3v2.3h-0.9V5.3H59.7z"/><path fill="#231F20" d="M66.6 9.1h-1.6l-0.4 1.2h-1l1.7-4.9h0.9l1.7 4.9h-1L66.6 9.1z M65.3 8.2h1l-0.5-1.7L65.3 8.2z"/></g><g><path fill="#231F20" d="M73.6 15.2H0V0h73.6V15.2z M1 14.2h71.6V1H1V14.2z"/></g></svg>